<?xml version="1.0" encoding="utf-8"?>
<!-- Generator: Adobe Illustrator 16.0.3, SVG Export Plug-In . SVG Version: 6.00 Build 0)  -->
<!DOCTYPE svg PUBLIC "-//W3C//DTD SVG 1.1//EN" "http://www.w3.org/Graphics/SVG/1.1/DTD/svg11.dtd">
<svg version="1.1" id="Layer_1" xmlns="http://www.w3.org/2000/svg" xmlns:xlink="http://www.w3.org/1999/xlink" x="0px" y="0px"
	 width="536.498px" height="536.497px" viewBox="0 0 536.498 536.497" enable-background="new 0 0 536.498 536.497"
	 xml:space="preserve">
<path d="M268.251,0C120.336,0,0,120.33,0,268.245c0,147.916,120.336,268.252,268.251,268.252
	c147.911,0,268.247-120.336,268.247-268.252C536.498,120.33,416.162,0,268.251,0z M372.128,294.414H227.563l37.658,37.669
	c10.221,10.221,10.221,26.788,0,37.009c-10.215,10.221-26.788,10.221-37.009,0l-82.321-82.327c-1.226-1.221-2.328-2.572-3.28-4.024
	c-0.423-0.607-0.703-1.292-1.066-1.94c-0.458-0.84-0.97-1.661-1.345-2.548c-0.345-0.852-0.547-1.744-0.804-2.613
	c-0.232-0.768-0.523-1.477-0.678-2.268c-0.346-1.686-0.524-3.405-0.524-5.126s0.179-3.44,0.524-5.125
	c0.155-0.792,0.446-1.5,0.678-2.269c0.256-0.869,0.458-1.768,0.804-2.613c0.375-0.893,0.881-1.708,1.345-2.548
	c0.363-0.648,0.637-1.339,1.066-1.94c0.952-1.452,2.054-2.804,3.28-4.023l82.321-82.328c10.221-10.221,26.793-10.221,37.009,0
	c10.221,10.222,10.221,26.788,0,37.009l-37.658,37.67h144.565c14.465,0,26.168,11.721,26.168,26.168
	S386.593,294.414,372.128,294.414z"/>
</svg>
