<?xml version="1.0" encoding="utf-8"?>
<!-- Generator: Adobe Illustrator 16.0.3, SVG Export Plug-In . SVG Version: 6.00 Build 0)  -->
<!DOCTYPE svg PUBLIC "-//W3C//DTD SVG 1.1//EN" "http://www.w3.org/Graphics/SVG/1.1/DTD/svg11.dtd">
<svg version="1.1" id="Layer_1" xmlns="http://www.w3.org/2000/svg" xmlns:xlink="http://www.w3.org/1999/xlink" x="0px" y="0px"
	 width="536.498px" height="536.497px" viewBox="0 0 536.498 536.497" enable-background="new 0 0 536.498 536.497"
	 xml:space="preserve">
<path d="M268.251,536.497c147.911,0,268.247-120.336,268.247-268.252C536.498,120.33,416.162,0,268.251,0
	C120.336,0,0,120.33,0,268.245C0,416.161,120.336,536.497,268.251,536.497z M164.375,242.077h144.564l-37.659-37.67
	c-10.226-10.221-10.226-26.787,0-37.009c10.209-10.221,26.783-10.221,37.01,0l82.314,82.328c1.227,1.22,2.328,2.571,3.287,4.023
	c0.422,0.607,0.701,1.292,1.059,1.94c0.465,0.84,0.977,1.649,1.346,2.548c0.352,0.852,0.553,1.744,0.809,2.613
	c0.227,0.769,0.525,1.477,0.674,2.269c0.352,1.685,0.523,3.404,0.523,5.125s-0.172,3.44-0.523,5.126
	c-0.148,0.791-0.447,1.5-0.674,2.268c-0.256,0.869-0.457,1.768-0.809,2.613c-0.369,0.881-0.875,1.708-1.346,2.548
	c-0.357,0.648-0.631,1.339-1.059,1.94c-0.959,1.452-2.061,2.804-3.287,4.024l-82.314,82.327c-10.227,10.221-26.801,10.221-37.01,0
	c-10.226-10.221-10.226-26.788,0-37.009l37.659-37.669H164.375c-14.465,0-26.168-11.722-26.168-26.169
	S149.909,242.077,164.375,242.077z"/>
</svg>
